<mxfile host="app.diagrams.net" agent="Mozilla/5.0 (X11; Linux x86_64; rv:131.0) Gecko/20100101 Firefox/131.0" version="24.7.16">
  <diagram name="Page-1" id="3y4aifLqgROa9o55nkaQ">
    <mxGraphModel dx="1687" dy="887" grid="1" gridSize="10" guides="1" tooltips="1" connect="1" arrows="1" fold="1" page="1" pageScale="1" pageWidth="850" pageHeight="1100" math="0" shadow="0">
      <root>
        <mxCell id="0" />
        <mxCell id="1" parent="0" />
        <mxCell id="k8HMDKDXzCXojnugXpO2-5" value="" style="edgeStyle=orthogonalEdgeStyle;rounded=0;orthogonalLoop=1;jettySize=auto;html=1;fillColor=#d5e8d4;strokeColor=#82b366;" edge="1" parent="1" source="k8HMDKDXzCXojnugXpO2-3" target="k8HMDKDXzCXojnugXpO2-4">
          <mxGeometry relative="1" as="geometry" />
        </mxCell>
        <mxCell id="k8HMDKDXzCXojnugXpO2-11" value="" style="edgeStyle=orthogonalEdgeStyle;rounded=0;orthogonalLoop=1;jettySize=auto;html=1;fillColor=#f8cecc;strokeColor=#b85450;" edge="1" parent="1" source="k8HMDKDXzCXojnugXpO2-3" target="k8HMDKDXzCXojnugXpO2-10">
          <mxGeometry relative="1" as="geometry" />
        </mxCell>
        <mxCell id="k8HMDKDXzCXojnugXpO2-24" value="" style="edgeStyle=orthogonalEdgeStyle;rounded=0;orthogonalLoop=1;jettySize=auto;html=1;fillColor=#ffe6cc;strokeColor=#d79b00;" edge="1" parent="1" source="k8HMDKDXzCXojnugXpO2-3" target="k8HMDKDXzCXojnugXpO2-23">
          <mxGeometry relative="1" as="geometry" />
        </mxCell>
        <mxCell id="k8HMDKDXzCXojnugXpO2-3" value="MainBot" style="rounded=0;whiteSpace=wrap;html=1;fillColor=#dae8fc;strokeColor=#6c8ebf;" vertex="1" parent="1">
          <mxGeometry x="365" y="60" width="120" height="60" as="geometry" />
        </mxCell>
        <mxCell id="k8HMDKDXzCXojnugXpO2-9" value="" style="edgeStyle=orthogonalEdgeStyle;rounded=0;orthogonalLoop=1;jettySize=auto;html=1;fillColor=#d5e8d4;strokeColor=#82b366;" edge="1" parent="1" source="k8HMDKDXzCXojnugXpO2-4" target="k8HMDKDXzCXojnugXpO2-8">
          <mxGeometry relative="1" as="geometry" />
        </mxCell>
        <mxCell id="k8HMDKDXzCXojnugXpO2-4" value="UserOperatorBot" style="rounded=0;whiteSpace=wrap;html=1;fillColor=#d5e8d4;strokeColor=#82b366;" vertex="1" parent="1">
          <mxGeometry x="245" y="200" width="120" height="60" as="geometry" />
        </mxCell>
        <mxCell id="k8HMDKDXzCXojnugXpO2-6" value="&lt;div&gt;Configurator&lt;/div&gt;" style="whiteSpace=wrap;html=1;rounded=0;fillColor=#d5e8d4;strokeColor=#82b366;" vertex="1" parent="1">
          <mxGeometry x="20" y="390" width="120" height="60" as="geometry" />
        </mxCell>
        <mxCell id="k8HMDKDXzCXojnugXpO2-13" style="edgeStyle=orthogonalEdgeStyle;rounded=0;orthogonalLoop=1;jettySize=auto;html=1;entryX=1;entryY=0.5;entryDx=0;entryDy=0;fillColor=#d5e8d4;strokeColor=#82b366;" edge="1" parent="1" source="k8HMDKDXzCXojnugXpO2-8" target="k8HMDKDXzCXojnugXpO2-6">
          <mxGeometry relative="1" as="geometry">
            <Array as="points">
              <mxPoint x="305" y="420" />
              <mxPoint x="150" y="420" />
            </Array>
          </mxGeometry>
        </mxCell>
        <mxCell id="k8HMDKDXzCXojnugXpO2-18" value="" style="edgeStyle=orthogonalEdgeStyle;rounded=0;orthogonalLoop=1;jettySize=auto;html=1;fillColor=#d5e8d4;strokeColor=#82b366;" edge="1" parent="1" source="k8HMDKDXzCXojnugXpO2-8" target="k8HMDKDXzCXojnugXpO2-14">
          <mxGeometry relative="1" as="geometry">
            <Array as="points">
              <mxPoint x="305" y="550" />
            </Array>
          </mxGeometry>
        </mxCell>
        <mxCell id="k8HMDKDXzCXojnugXpO2-20" value="" style="edgeStyle=orthogonalEdgeStyle;rounded=0;orthogonalLoop=1;jettySize=auto;html=1;fillColor=#d5e8d4;strokeColor=#82b366;" edge="1" parent="1" source="k8HMDKDXzCXojnugXpO2-8" target="k8HMDKDXzCXojnugXpO2-19">
          <mxGeometry relative="1" as="geometry">
            <Array as="points">
              <mxPoint x="305" y="680" />
            </Array>
          </mxGeometry>
        </mxCell>
        <mxCell id="k8HMDKDXzCXojnugXpO2-8" value="UI" style="whiteSpace=wrap;html=1;rounded=0;fillColor=#d5e8d4;strokeColor=#82b366;" vertex="1" parent="1">
          <mxGeometry x="245" y="330" width="120" height="60" as="geometry" />
        </mxCell>
        <mxCell id="k8HMDKDXzCXojnugXpO2-22" value="" style="edgeStyle=orthogonalEdgeStyle;rounded=0;orthogonalLoop=1;jettySize=auto;html=1;fillColor=#f8cecc;strokeColor=#b85450;" edge="1" parent="1" source="k8HMDKDXzCXojnugXpO2-10" target="k8HMDKDXzCXojnugXpO2-21">
          <mxGeometry relative="1" as="geometry" />
        </mxCell>
        <mxCell id="k8HMDKDXzCXojnugXpO2-10" value="GroupOperatorBot" style="whiteSpace=wrap;html=1;rounded=0;fillColor=#f8cecc;strokeColor=#b85450;" vertex="1" parent="1">
          <mxGeometry x="485" y="200" width="120" height="60" as="geometry" />
        </mxCell>
        <mxCell id="k8HMDKDXzCXojnugXpO2-14" value="Geter" style="whiteSpace=wrap;html=1;rounded=0;fillColor=#d5e8d4;strokeColor=#82b366;" vertex="1" parent="1">
          <mxGeometry x="20" y="520" width="120" height="60" as="geometry" />
        </mxCell>
        <mxCell id="k8HMDKDXzCXojnugXpO2-19" value="Publicator" style="whiteSpace=wrap;html=1;rounded=0;fillColor=#d5e8d4;strokeColor=#82b366;" vertex="1" parent="1">
          <mxGeometry x="20" y="650" width="120" height="60" as="geometry" />
        </mxCell>
        <mxCell id="k8HMDKDXzCXojnugXpO2-21" value="Sender" style="whiteSpace=wrap;html=1;rounded=0;fillColor=#f8cecc;strokeColor=#b85450;" vertex="1" parent="1">
          <mxGeometry x="485" y="330" width="120" height="60" as="geometry" />
        </mxCell>
        <mxCell id="k8HMDKDXzCXojnugXpO2-26" value="" style="edgeStyle=orthogonalEdgeStyle;rounded=0;orthogonalLoop=1;jettySize=auto;html=1;fillColor=#ffe6cc;strokeColor=#d79b00;" edge="1" parent="1" source="k8HMDKDXzCXojnugXpO2-23" target="k8HMDKDXzCXojnugXpO2-25">
          <mxGeometry relative="1" as="geometry">
            <Array as="points">
              <mxPoint x="425" y="610" />
            </Array>
          </mxGeometry>
        </mxCell>
        <mxCell id="k8HMDKDXzCXojnugXpO2-23" value="DataMiner" style="whiteSpace=wrap;html=1;rounded=0;fillColor=#ffe6cc;strokeColor=#d79b00;" vertex="1" parent="1">
          <mxGeometry x="365" y="460" width="120" height="60" as="geometry" />
        </mxCell>
        <mxCell id="k8HMDKDXzCXojnugXpO2-28" value="" style="edgeStyle=orthogonalEdgeStyle;rounded=0;orthogonalLoop=1;jettySize=auto;html=1;fillColor=#ffe6cc;strokeColor=#d79b00;" edge="1" parent="1" source="k8HMDKDXzCXojnugXpO2-25" target="k8HMDKDXzCXojnugXpO2-27">
          <mxGeometry relative="1" as="geometry" />
        </mxCell>
        <mxCell id="k8HMDKDXzCXojnugXpO2-25" value="LastEventGetter" style="whiteSpace=wrap;html=1;rounded=0;fillColor=#ffe6cc;strokeColor=#d79b00;" vertex="1" parent="1">
          <mxGeometry x="550" y="580" width="120" height="60" as="geometry" />
        </mxCell>
        <mxCell id="k8HMDKDXzCXojnugXpO2-30" value="" style="edgeStyle=orthogonalEdgeStyle;rounded=0;orthogonalLoop=1;jettySize=auto;html=1;fillColor=#ffe6cc;strokeColor=#d79b00;" edge="1" parent="1" source="k8HMDKDXzCXojnugXpO2-27" target="k8HMDKDXzCXojnugXpO2-29">
          <mxGeometry relative="1" as="geometry" />
        </mxCell>
        <mxCell id="k8HMDKDXzCXojnugXpO2-27" value="Checker" style="whiteSpace=wrap;html=1;rounded=0;fillColor=#ffe6cc;strokeColor=#d79b00;" vertex="1" parent="1">
          <mxGeometry x="750" y="580" width="120" height="60" as="geometry" />
        </mxCell>
        <mxCell id="k8HMDKDXzCXojnugXpO2-29" value="Writer" style="whiteSpace=wrap;html=1;rounded=0;fillColor=#ffe6cc;strokeColor=#d79b00;" vertex="1" parent="1">
          <mxGeometry x="955" y="580" width="120" height="60" as="geometry" />
        </mxCell>
      </root>
    </mxGraphModel>
  </diagram>
</mxfile>
